<svg width="192" height="30" viewBox="0 0 192 30" fill="none" xmlns="http://www.w3.org/2000/svg">
<path d="M6.702 18.759V29H0.28V1.317H9.286C11.2873 1.317 12.991 1.526 14.397 1.944C15.8157 2.34933 16.9683 2.91933 17.855 3.654C18.7543 4.38867 19.4067 5.25633 19.812 6.257C20.2173 7.25767 20.42 8.347 20.42 9.525C20.42 10.4243 20.2997 11.273 20.059 12.071C19.8183 12.869 19.4573 13.61 18.976 14.294C18.5073 14.9653 17.9247 15.567 17.228 16.099C16.544 16.631 15.7523 17.068 14.853 17.41C15.2837 17.6253 15.6827 17.8913 16.05 18.208C16.43 18.5247 16.7593 18.911 17.038 19.367L22.928 29H17.114C16.0373 29 15.2647 28.5947 14.796 27.784L10.198 19.747C9.99533 19.3923 9.75467 19.139 9.476 18.987C9.21 18.835 8.83 18.759 8.336 18.759H6.702ZM6.702 14.332H9.286C10.16 14.332 10.901 14.2243 11.509 14.009C12.1297 13.781 12.6363 13.4707 13.029 13.078C13.4217 12.6853 13.7067 12.2293 13.884 11.71C14.0613 11.178 14.15 10.608 14.15 10C14.15 8.784 13.751 7.834 12.953 7.15C12.1677 6.466 10.9453 6.124 9.286 6.124H6.702V14.332ZM33.9875 8.993C35.2922 8.993 36.4828 9.19567 37.5595 9.601C38.6488 10.0063 39.5798 10.5953 40.3525 11.368C41.1378 12.1407 41.7458 13.0907 42.1765 14.218C42.6198 15.3327 42.8415 16.5993 42.8415 18.018C42.8415 18.4613 42.8225 18.8223 42.7845 19.101C42.7465 19.3797 42.6768 19.6013 42.5755 19.766C42.4742 19.9307 42.3348 20.0447 42.1575 20.108C41.9928 20.1713 41.7775 20.203 41.5115 20.203H30.1495C30.3395 21.8497 30.8398 23.0467 31.6505 23.794C32.4612 24.5287 33.5062 24.896 34.7855 24.896C35.4695 24.896 36.0585 24.8137 36.5525 24.649C37.0465 24.4843 37.4835 24.3007 37.8635 24.098C38.2562 23.8953 38.6108 23.7117 38.9275 23.547C39.2568 23.3823 39.5988 23.3 39.9535 23.3C40.4222 23.3 40.7768 23.471 41.0175 23.813L42.7275 25.922C42.1195 26.6187 41.4608 27.1887 40.7515 27.632C40.0548 28.0627 39.3328 28.4047 38.5855 28.658C37.8508 28.8987 37.1098 29.0633 36.3625 29.152C35.6278 29.2533 34.9248 29.304 34.2535 29.304C32.8728 29.304 31.5745 29.0823 30.3585 28.639C29.1552 28.183 28.0975 27.5117 27.1855 26.625C26.2862 25.7383 25.5705 24.6363 25.0385 23.319C24.5192 22.0017 24.2595 20.469 24.2595 18.721C24.2595 17.4037 24.4812 16.156 24.9245 14.978C25.3805 13.8 26.0265 12.7677 26.8625 11.881C27.7112 10.9943 28.7308 10.2913 29.9215 9.772C31.1248 9.25266 32.4802 8.993 33.9875 8.993ZM34.1015 13.059C32.9742 13.059 32.0938 13.382 31.4605 14.028C30.8272 14.6613 30.4092 15.5797 30.2065 16.783H37.5595C37.5595 16.3143 37.4962 15.8583 37.3695 15.415C37.2555 14.9717 37.0592 14.579 36.7805 14.237C36.5145 13.8823 36.1598 13.5973 35.7165 13.382C35.2732 13.1667 34.7348 13.059 34.1015 13.059ZM59.8254 29C59.2681 29 58.8437 28.924 58.5524 28.772C58.2737 28.62 58.0394 28.3033 57.8494 27.822L57.4314 26.739C56.9374 27.157 56.4624 27.5243 56.0064 27.841C55.5504 28.1577 55.0754 28.43 54.5814 28.658C54.1001 28.8733 53.5807 29.0317 53.0234 29.133C52.4787 29.247 51.8707 29.304 51.1994 29.304C50.3001 29.304 49.4831 29.19 48.7484 28.962C48.0137 28.7213 47.3867 28.373 46.8674 27.917C46.3607 27.461 45.9681 26.8973 45.6894 26.226C45.4107 25.542 45.2714 24.7567 45.2714 23.87C45.2714 23.1733 45.4487 22.4577 45.8034 21.723C46.1581 20.9883 46.7724 20.3233 47.6464 19.728C48.5204 19.12 49.6984 18.6133 51.1804 18.208C52.6624 17.8027 54.5307 17.5747 56.7854 17.524V16.688C56.7854 15.5353 56.5447 14.7057 56.0634 14.199C55.5947 13.6797 54.9234 13.42 54.0494 13.42C53.3527 13.42 52.7827 13.496 52.3394 13.648C51.8961 13.8 51.4971 13.971 51.1424 14.161C50.8004 14.351 50.4647 14.522 50.1354 14.674C49.8061 14.826 49.4134 14.902 48.9574 14.902C48.5521 14.902 48.2037 14.807 47.9124 14.617C47.6337 14.4143 47.4121 14.1673 47.2474 13.876L46.1834 12.033C47.3741 10.9817 48.6914 10.2027 50.1354 9.696C51.5921 9.17667 53.1501 8.917 54.8094 8.917C56.0001 8.917 57.0704 9.11333 58.0204 9.506C58.9831 9.886 59.7937 10.4243 60.4524 11.121C61.1237 11.805 61.6367 12.622 61.9914 13.572C62.3461 14.522 62.5234 15.5607 62.5234 16.688V29H59.8254ZM53.0614 25.409C53.8214 25.409 54.4864 25.276 55.0564 25.01C55.6264 24.744 56.2027 24.3133 56.7854 23.718V20.982C55.6074 21.0327 54.6384 21.134 53.8784 21.286C53.1184 21.438 52.5167 21.628 52.0734 21.856C51.6301 22.084 51.3197 22.3437 51.1424 22.635C50.9777 22.9263 50.8954 23.243 50.8954 23.585C50.8954 24.2563 51.0791 24.7313 51.4464 25.01C51.8137 25.276 52.3521 25.409 53.0614 25.409ZM72.7858 0.556998V29H66.8958V0.556998H72.7858Z" fill="white"/>
<path d="M102.711 1.317V6.257H91.3494V12.717H100.051V17.467H91.3494V24.06H102.711V29H84.8894V1.317H102.711ZM118.422 13.61C118.27 13.8507 118.105 14.0217 117.928 14.123C117.763 14.2243 117.548 14.275 117.282 14.275C117.003 14.275 116.724 14.218 116.446 14.104C116.167 13.9773 115.863 13.8443 115.534 13.705C115.217 13.5657 114.856 13.439 114.451 13.325C114.045 13.1983 113.583 13.135 113.064 13.135C112.316 13.135 111.74 13.2807 111.335 13.572C110.942 13.8507 110.746 14.2433 110.746 14.75C110.746 15.1173 110.872 15.4213 111.126 15.662C111.392 15.9027 111.74 16.118 112.171 16.308C112.601 16.4853 113.089 16.6563 113.634 16.821C114.178 16.9857 114.736 17.1693 115.306 17.372C115.876 17.5747 116.433 17.8153 116.978 18.094C117.522 18.36 118.01 18.6957 118.441 19.101C118.871 19.4937 119.213 19.975 119.467 20.545C119.733 21.115 119.866 21.799 119.866 22.597C119.866 23.5723 119.688 24.4717 119.334 25.295C118.979 26.1183 118.447 26.8277 117.738 27.423C117.041 28.0183 116.173 28.4807 115.135 28.81C114.109 29.1393 112.924 29.304 111.582 29.304C110.91 29.304 110.239 29.2407 109.568 29.114C108.896 28.9873 108.244 28.8163 107.611 28.601C106.99 28.3857 106.414 28.1323 105.882 27.841C105.35 27.537 104.894 27.214 104.514 26.872L105.882 24.706C106.046 24.4527 106.243 24.2563 106.471 24.117C106.699 23.965 106.996 23.889 107.364 23.889C107.706 23.889 108.01 23.965 108.276 24.117C108.554 24.269 108.852 24.4337 109.169 24.611C109.485 24.7883 109.853 24.953 110.271 25.105C110.701 25.257 111.24 25.333 111.886 25.333C112.342 25.333 112.728 25.2887 113.045 25.2C113.361 25.0987 113.615 24.9657 113.805 24.801C113.995 24.6363 114.134 24.4527 114.223 24.25C114.311 24.0473 114.356 23.8383 114.356 23.623C114.356 23.2303 114.223 22.9073 113.957 22.654C113.691 22.4007 113.342 22.1853 112.912 22.008C112.481 21.818 111.987 21.647 111.43 21.495C110.885 21.3303 110.328 21.1467 109.758 20.944C109.188 20.7413 108.624 20.5007 108.067 20.222C107.522 19.9307 107.034 19.5697 106.604 19.139C106.173 18.6957 105.825 18.1573 105.559 17.524C105.293 16.8907 105.16 16.1243 105.16 15.225C105.16 14.389 105.318 13.5973 105.635 12.85C105.964 12.09 106.452 11.425 107.098 10.855C107.744 10.285 108.554 9.83533 109.53 9.506C110.505 9.164 111.645 8.993 112.95 8.993C113.659 8.993 114.343 9.05633 115.002 9.183C115.673 9.30967 116.3 9.487 116.883 9.715C117.465 9.943 117.997 10.2153 118.479 10.532C118.96 10.836 119.384 11.1717 119.752 11.539L118.422 13.61ZM130.028 29.304C129.091 29.304 128.261 29.171 127.539 28.905C126.83 28.6263 126.228 28.24 125.734 27.746C125.253 27.2393 124.885 26.6313 124.632 25.922C124.379 25.2127 124.252 24.421 124.252 23.547V13.363H122.58C122.276 13.363 122.016 13.268 121.801 13.078C121.586 12.8753 121.478 12.584 121.478 12.204V9.905L124.613 9.297L125.772 4.49C125.924 3.882 126.355 3.578 127.064 3.578H130.142V9.335H134.93V13.363H130.142V23.148C130.142 23.604 130.25 23.984 130.465 24.288C130.693 24.5793 131.016 24.725 131.434 24.725C131.649 24.725 131.827 24.706 131.966 24.668C132.118 24.6173 132.245 24.5667 132.346 24.516C132.46 24.4527 132.561 24.402 132.65 24.364C132.751 24.3133 132.865 24.288 132.992 24.288C133.169 24.288 133.309 24.3323 133.41 24.421C133.524 24.497 133.638 24.6237 133.752 24.801L135.538 27.594C134.778 28.164 133.923 28.5947 132.973 28.886C132.023 29.1647 131.041 29.304 130.028 29.304ZM151.931 29C151.374 29 150.949 28.924 150.658 28.772C150.379 28.62 150.145 28.3033 149.955 27.822L149.537 26.739C149.043 27.157 148.568 27.5243 148.112 27.841C147.656 28.1577 147.181 28.43 146.687 28.658C146.206 28.8733 145.686 29.0317 145.129 29.133C144.584 29.247 143.976 29.304 143.305 29.304C142.406 29.304 141.589 29.19 140.854 28.962C140.119 28.7213 139.492 28.373 138.973 27.917C138.466 27.461 138.074 26.8973 137.795 26.226C137.516 25.542 137.377 24.7567 137.377 23.87C137.377 23.1733 137.554 22.4577 137.909 21.723C138.264 20.9883 138.878 20.3233 139.752 19.728C140.626 19.12 141.804 18.6133 143.286 18.208C144.768 17.8027 146.636 17.5747 148.891 17.524V16.688C148.891 15.5353 148.65 14.7057 148.169 14.199C147.7 13.6797 147.029 13.42 146.155 13.42C145.458 13.42 144.888 13.496 144.445 13.648C144.002 13.8 143.603 13.971 143.248 14.161C142.906 14.351 142.57 14.522 142.241 14.674C141.912 14.826 141.519 14.902 141.063 14.902C140.658 14.902 140.309 14.807 140.018 14.617C139.739 14.4143 139.518 14.1673 139.353 13.876L138.289 12.033C139.48 10.9817 140.797 10.2027 142.241 9.696C143.698 9.17667 145.256 8.917 146.915 8.917C148.106 8.917 149.176 9.11333 150.126 9.506C151.089 9.886 151.899 10.4243 152.558 11.121C153.229 11.805 153.742 12.622 154.097 13.572C154.452 14.522 154.629 15.5607 154.629 16.688V29H151.931ZM145.167 25.409C145.927 25.409 146.592 25.276 147.162 25.01C147.732 24.744 148.308 24.3133 148.891 23.718V20.982C147.713 21.0327 146.744 21.134 145.984 21.286C145.224 21.438 144.622 21.628 144.179 21.856C143.736 22.084 143.425 22.3437 143.248 22.635C143.083 22.9263 143.001 23.243 143.001 23.585C143.001 24.2563 143.185 24.7313 143.552 25.01C143.919 25.276 144.458 25.409 145.167 25.409ZM165.727 29.304C164.79 29.304 163.96 29.171 163.238 28.905C162.529 28.6263 161.927 28.24 161.433 27.746C160.952 27.2393 160.585 26.6313 160.331 25.922C160.078 25.2127 159.951 24.421 159.951 23.547V13.363H158.279C157.975 13.363 157.716 13.268 157.5 13.078C157.285 12.8753 157.177 12.584 157.177 12.204V9.905L160.312 9.297L161.471 4.49C161.623 3.882 162.054 3.578 162.763 3.578H165.841V9.335H170.629V13.363H165.841V23.148C165.841 23.604 165.949 23.984 166.164 24.288C166.392 24.5793 166.715 24.725 167.133 24.725C167.349 24.725 167.526 24.706 167.665 24.668C167.817 24.6173 167.944 24.5667 168.045 24.516C168.159 24.4527 168.261 24.402 168.349 24.364C168.451 24.3133 168.565 24.288 168.691 24.288C168.869 24.288 169.008 24.3323 169.109 24.421C169.223 24.497 169.337 24.6237 169.451 24.801L171.237 27.594C170.477 28.164 169.622 28.5947 168.672 28.886C167.722 29.1647 166.741 29.304 165.727 29.304ZM182.462 8.993C183.767 8.993 184.957 9.19567 186.034 9.601C187.123 10.0063 188.054 10.5953 188.827 11.368C189.612 12.1407 190.22 13.0907 190.651 14.218C191.094 15.3327 191.316 16.5993 191.316 18.018C191.316 18.4613 191.297 18.8223 191.259 19.101C191.221 19.3797 191.151 19.6013 191.05 19.766C190.949 19.9307 190.809 20.0447 190.632 20.108C190.467 20.1713 190.252 20.203 189.986 20.203H178.624C178.814 21.8497 179.314 23.0467 180.125 23.794C180.936 24.5287 181.981 24.896 183.26 24.896C183.944 24.896 184.533 24.8137 185.027 24.649C185.521 24.4843 185.958 24.3007 186.338 24.098C186.731 23.8953 187.085 23.7117 187.402 23.547C187.731 23.3823 188.073 23.3 188.428 23.3C188.897 23.3 189.251 23.471 189.492 23.813L191.202 25.922C190.594 26.6187 189.935 27.1887 189.226 27.632C188.529 28.0627 187.807 28.4047 187.06 28.658C186.325 28.8987 185.584 29.0633 184.837 29.152C184.102 29.2533 183.399 29.304 182.728 29.304C181.347 29.304 180.049 29.0823 178.833 28.639C177.63 28.183 176.572 27.5117 175.66 26.625C174.761 25.7383 174.045 24.6363 173.513 23.319C172.994 22.0017 172.734 20.469 172.734 18.721C172.734 17.4037 172.956 16.156 173.399 14.978C173.855 13.8 174.501 12.7677 175.337 11.881C176.186 10.9943 177.205 10.2913 178.396 9.772C179.599 9.25266 180.955 8.993 182.462 8.993ZM182.576 13.059C181.449 13.059 180.568 13.382 179.935 14.028C179.302 14.6613 178.884 15.5797 178.681 16.783H186.034C186.034 16.3143 185.971 15.8583 185.844 15.415C185.73 14.9717 185.534 14.579 185.255 14.237C184.989 13.8823 184.634 13.5973 184.191 13.382C183.748 13.1667 183.209 13.059 182.576 13.059Z" fill="#FF5A3C"/>
</svg>
