<svg width="16" height="16" viewBox="0 0 16 16" fill="none" xmlns="http://www.w3.org/2000/svg">
<rect x="3.19961" y="12.8" width="1.59998" height="3.19996" fill="white"/>
<rect x="11.1996" y="12.8" width="1.59998" height="3.19996" fill="white"/>
<path d="M0.43609 6.8355H15.5637V8.36623C15.5637 11.0155 13.416 13.1632 10.7667 13.1632H5.23308C2.58377 13.1632 0.43609 11.0155 0.43609 8.36623V6.8355Z" stroke="white" stroke-width="0.87218"/>
<rect x="2.40024" y="3.1994" width="1.59998" height="3.19996" fill="white"/>
<rect x="7.19984" y="3.1994" width="1.59998" height="0.799989" fill="white"/>
<path d="M8.80032 3.19996C8.80032 2.77973 8.71755 2.36362 8.55673 1.97539C8.39592 1.58715 8.16021 1.23439 7.86307 0.937245C7.56593 0.640102 7.21317 0.404395 6.82493 0.243582C6.43669 0.0827693 6.02059 -1.83686e-08 5.60036 0C5.18014 1.83686e-08 4.76403 0.0827693 4.37579 0.243582C3.98755 0.404395 3.63479 0.640102 3.33765 0.937245C3.04051 1.23439 2.8048 1.58715 2.64399 1.97539C2.48318 2.36362 2.40041 2.77973 2.40041 3.19996H4.00234C4.00234 2.9901 4.04367 2.7823 4.12398 2.58842C4.20429 2.39454 4.322 2.21837 4.47039 2.06998C4.61878 1.92159 4.79494 1.80388 4.98882 1.72357C5.1827 1.64326 5.39051 1.60193 5.60036 1.60193C5.81022 1.60193 6.01802 1.64326 6.2119 1.72357C6.40578 1.80388 6.58195 1.92159 6.73034 2.06998C6.87873 2.21837 6.99644 2.39454 7.07674 2.58842C7.15705 2.7823 7.19839 2.9901 7.19839 3.19996H8.80032Z" fill="white"/>
</svg>
