<svg width="14" height="14" viewBox="0 0 14 14" fill="none" xmlns="http://www.w3.org/2000/svg">
<g clip-path="url(#clip0_150_6282)">
<path d="M9.99621 11.7819V10.6631C9.99621 10.0697 9.76047 9.50054 9.34084 9.08091C8.92121 8.66128 8.35206 8.42554 7.75862 8.42554H3.28343C2.68998 8.42554 2.12084 8.66128 1.70121 9.08091C1.28158 9.50054 1.04584 10.0697 1.04584 10.6631V11.7819" stroke="#FF8700" stroke-width="0.839098" stroke-linecap="round" stroke-linejoin="round"/>
<path d="M5.52153 6.1879C6.75732 6.1879 7.75912 5.18609 7.75912 3.9503C7.75912 2.71451 6.75732 1.71271 5.52153 1.71271C4.28574 1.71271 3.28394 2.71451 3.28394 3.9503C3.28394 5.18609 4.28574 6.1879 5.52153 6.1879Z" stroke="#FF8700" stroke-width="0.839098" stroke-linecap="round" stroke-linejoin="round"/>
<path d="M13.3528 11.7821V10.6633C13.3525 10.1675 13.1875 9.68589 12.8837 9.29405C12.58 8.90222 12.1547 8.62236 11.6747 8.49841" stroke="#FF8700" stroke-width="0.839098" stroke-linecap="round" stroke-linejoin="round"/>
<path d="M9.43707 1.78564C9.91839 1.90888 10.345 2.1888 10.6496 2.58128C10.9543 2.97376 11.1197 3.45647 11.1197 3.95331C11.1197 4.45016 10.9543 4.93287 10.6496 5.32534C10.345 5.71782 9.91839 5.99775 9.43707 6.12098" stroke="#FF8700" stroke-width="0.839098" stroke-linecap="round" stroke-linejoin="round"/>
</g>
<defs>
<clipPath id="clip0_150_6282">
<rect width="13.4256" height="13.4256" fill="white" transform="translate(0.486511 0.0349731)"/>
</clipPath>
</defs>
</svg>
