<svg width="14" height="14" viewBox="0 0 14 14" fill="none" xmlns="http://www.w3.org/2000/svg">
<path d="M6.65028 4.84886V2.52028C7.19509 2.3803 7.5989 1.88497 7.5989 1.29706C7.5989 0.60076 7.03245 0.0343018 6.33614 0.0343018C5.63989 0.0343018 5.07343 0.60076 5.07343 1.29706C5.07343 1.88497 5.47724 2.38026 6.02201 2.52024V4.84882C5.36126 4.94825 4.80025 5.35626 4.49085 5.92096L3.10905 4.84676C3.14285 4.75164 3.16141 4.64932 3.16141 4.54276C3.16141 4.04055 2.75281 3.63196 2.25061 3.63196C1.7484 3.63196 1.33981 4.04055 1.33981 4.54276C1.33981 5.04497 1.7484 5.45356 2.25061 5.45356C2.41698 5.45356 2.57292 5.40849 2.70729 5.33029L4.26919 6.5445C4.24615 6.66895 4.2335 6.79695 4.2335 6.92797C4.2335 7.39457 4.38647 7.82599 4.64461 8.17519L2.8786 9.9412C2.75591 10.0639 2.75591 10.2628 2.8786 10.3854C2.93996 10.4468 3.02038 10.4775 3.10076 10.4775C3.18113 10.4775 3.26155 10.4468 3.32292 10.3854L5.08893 8.61942C5.35821 8.8185 5.67641 8.95501 6.02201 9.00703V11.3408C5.67411 11.4691 5.42535 11.8039 5.42535 12.1957C5.42535 12.6979 5.83394 13.1065 6.33614 13.1065C6.83835 13.1065 7.24694 12.6979 7.24694 12.1957C7.24694 11.8038 6.99818 11.469 6.65028 11.3408V9.00707C7.66123 8.85499 8.43879 7.98063 8.43879 6.92801C8.43879 5.8753 7.66119 5.00094 6.65028 4.84886ZM2.25061 4.82532C2.0948 4.82532 1.96809 4.69857 1.96809 4.5428C1.96809 4.38703 2.0948 4.26029 2.25061 4.26029C2.40642 4.26029 2.53313 4.38703 2.53313 4.5428C2.53313 4.69857 2.40638 4.82532 2.25061 4.82532ZM5.70167 1.29706C5.70167 0.947194 5.98628 0.662582 6.3361 0.662582C6.68593 0.662582 6.97058 0.947194 6.97058 1.29706C6.97058 1.64693 6.68593 1.93154 6.3361 1.93154C5.98628 1.93154 5.70167 1.64693 5.70167 1.29706ZM6.33614 12.4782C6.18033 12.4782 6.05363 12.3515 6.05363 12.1957C6.05363 12.0594 6.15068 11.9453 6.27935 11.9189C6.29778 11.9223 6.31671 11.9243 6.33614 11.9243C6.35558 11.9243 6.37451 11.9223 6.39294 11.9189C6.52161 11.9453 6.61866 12.0594 6.61866 12.1957C6.61866 12.3515 6.49192 12.4782 6.33614 12.4782ZM6.33614 8.40229C5.52319 8.40229 4.86182 7.74088 4.86182 6.92792C4.86182 6.78447 4.88281 6.64587 4.92118 6.51464C4.92323 6.50815 4.92515 6.5017 4.92675 6.49512C5.11209 5.89273 5.67373 5.45356 6.33614 5.45356C7.1491 5.45356 7.81051 6.11497 7.81051 6.92792C7.81051 7.74092 7.1491 8.40229 6.33614 8.40229Z" fill="#1B70BB"/>
<path d="M12.554 3.87543C11.8577 3.87543 11.2913 4.44189 11.2913 5.13819C11.2913 5.17065 11.2929 5.2027 11.2953 5.23453L9.02358 6.00912C8.85935 6.06508 8.7716 6.24364 8.8276 6.40783C8.87212 6.53847 8.99417 6.62069 9.1249 6.62069C9.15853 6.62069 9.19271 6.61525 9.2263 6.60381L11.498 5.82926C11.7238 6.17323 12.1127 6.401 12.5541 6.401C13.2503 6.401 13.8168 5.83454 13.8168 5.13824C13.8168 4.44193 13.2503 3.87543 12.554 3.87543ZM12.554 5.77272C12.2042 5.77272 11.9196 5.48811 11.9196 5.13824C11.9196 4.78837 12.2042 4.50375 12.554 4.50375C12.9039 4.50375 13.1885 4.78837 13.1885 5.13824C13.1885 5.48806 12.9039 5.77272 12.554 5.77272Z" fill="#1B70BB"/>
<path d="M1.65397 10.3476C0.957663 10.3476 0.391205 10.9141 0.391205 11.6104C0.391205 12.3067 0.957663 12.8731 1.65397 12.8731C2.35023 12.8731 2.91668 12.3067 2.91668 11.6104C2.91673 10.9141 2.35023 10.3476 1.65397 10.3476ZM1.65397 12.2449C1.3041 12.2449 1.01949 11.9603 1.01949 11.6104C1.01949 11.2605 1.30414 10.9759 1.65397 10.9759C2.00379 10.9759 2.2884 11.2605 2.2884 11.6104C2.28845 11.9602 2.00383 12.2449 1.65397 12.2449Z" fill="#1B70BB"/>
</svg>
