<svg width="14" height="15" viewBox="0 0 14 15" fill="none" xmlns="http://www.w3.org/2000/svg">
<rect x="2.79929" y="11.3313" width="1.40001" height="3.50002" fill="#2EC1AC"/>
<rect x="2.79929" y="0.831299" width="1.40001" height="5.60003" fill="#2EC1AC"/>
<rect x="11.2" y="2.23151" width="1.40001" height="8.40004" transform="rotate(90 11.2 2.23151)" fill="#2EC1AC"/>
<rect x="7.69986" y="7.13144" width="1.40001" height="4.20002" transform="rotate(-180 7.69986 7.13144)" fill="#2EC1AC"/>
<rect x="9.79974" y="11.3313" width="1.40001" height="3.50002" fill="#2EC1AC"/>
<rect x="9.79974" y="0.831299" width="1.40001" height="5.60003" fill="#2EC1AC"/>
<path d="M13.5805 11.1923C13.5805 11.424 13.3927 11.6118 13.161 11.6118L0.839092 11.6118C0.607381 11.6118 0.419542 11.424 0.419542 11.1923L0.419542 10.7659C0.419543 8.21711 2.48577 6.15089 5.03458 6.15089L8.96547 6.15089C11.5143 6.15089 13.5805 8.21711 13.5805 10.7659L13.5805 11.1923Z" stroke="#2EC1AC" stroke-width="0.839098"/>
</svg>
