<svg width="14" height="15" viewBox="0 0 14 15" fill="none" xmlns="http://www.w3.org/2000/svg">
<rect x="2.79956" y="11.7217" width="1.4" height="2.8" fill="#2EC1AC"/>
<rect x="9.79999" y="11.7217" width="1.4" height="2.8" fill="#2EC1AC"/>
<path d="M0.419549 6.54116H13.5805V7.38703C13.5805 9.93585 11.5142 12.0021 8.96543 12.0021H5.03459C2.48578 12.0021 0.419549 9.93585 0.419549 7.38703V6.54116Z" stroke="#2EC1AC" stroke-width="0.839098"/>
<rect x="2.09985" y="3.32108" width="1.4" height="2.8" fill="#2EC1AC"/>
<rect x="6.29993" y="3.32108" width="1.4" height="0.700001" fill="#2EC1AC"/>
<path d="M7.7001 3.32167C7.7001 2.95397 7.62768 2.58987 7.48696 2.25016C7.34625 1.91044 7.14 1.60177 6.88 1.34177C6.62 1.08176 6.31133 0.875518 5.97161 0.734805C5.6319 0.594092 5.2678 0.521667 4.9001 0.521667C4.5324 0.521667 4.1683 0.594092 3.82859 0.734805C3.48887 0.875518 3.1802 1.08176 2.9202 1.34177C2.66019 1.60177 2.45395 1.91044 2.31324 2.25016C2.17252 2.58987 2.1001 2.95397 2.1001 3.32167H3.50181C3.50181 3.13804 3.53797 2.95621 3.60825 2.78657C3.67852 2.61692 3.78151 2.46277 3.91136 2.33293C4.0412 2.20308 4.19535 2.10009 4.365 2.02982C4.53464 1.95954 4.71647 1.92338 4.9001 1.92338C5.08373 1.92338 5.26555 1.95954 5.4352 2.02982C5.60485 2.10009 5.759 2.20308 5.88884 2.33293C6.01869 2.46277 6.12168 2.61692 6.19195 2.78657C6.26222 2.95621 6.29839 3.13804 6.29839 3.32167H7.7001Z" fill="#2EC1AC"/>
</svg>
