<svg width="142" height="22" viewBox="0 0 142 22" fill="none" xmlns="http://www.w3.org/2000/svg">
<path d="M5.412 13.454V21H0.68V0.602H7.316C8.79067 0.602 10.046 0.756 11.082 1.064C12.1273 1.36267 12.9767 1.78267 13.63 2.324C14.2927 2.86533 14.7733 3.50467 15.072 4.242C15.3707 4.97933 15.52 5.782 15.52 6.65C15.52 7.31267 15.4313 7.938 15.254 8.526C15.0767 9.114 14.8107 9.66 14.456 10.164C14.1107 10.6587 13.6813 11.102 13.168 11.494C12.664 11.886 12.0807 12.208 11.418 12.46C11.7353 12.6187 12.0293 12.8147 12.3 13.048C12.58 13.2813 12.8227 13.566 13.028 13.902L17.368 21H13.084C12.2907 21 11.7213 20.7013 11.376 20.104L7.988 14.182C7.83867 13.9207 7.66133 13.734 7.456 13.622C7.26 13.51 6.98 13.454 6.616 13.454H5.412ZM5.412 10.192H7.316C7.96 10.192 8.506 10.1127 8.954 9.954C9.41133 9.786 9.78467 9.55733 10.074 9.268C10.3633 8.97867 10.5733 8.64267 10.704 8.26C10.8347 7.868 10.9 7.448 10.9 7C10.9 6.104 10.606 5.404 10.018 4.9C9.43933 4.396 8.53867 4.144 7.316 4.144H5.412V10.192ZM25.5171 6.258C26.4784 6.258 27.3558 6.40733 28.1491 6.706C28.9518 7.00467 29.6378 7.43867 30.2071 8.008C30.7858 8.57733 31.2338 9.27733 31.5511 10.108C31.8778 10.9293 32.0411 11.8627 32.0411 12.908C32.0411 13.2347 32.0271 13.5007 31.9991 13.706C31.9711 13.9113 31.9198 14.0747 31.8451 14.196C31.7704 14.3173 31.6678 14.4013 31.5371 14.448C31.4158 14.4947 31.2571 14.518 31.0611 14.518H22.6891C22.8291 15.7313 23.1978 16.6133 23.7951 17.164C24.3924 17.7053 25.1624 17.976 26.1051 17.976C26.6091 17.976 27.0431 17.9153 27.4071 17.794C27.7711 17.6727 28.0931 17.5373 28.3731 17.388C28.6624 17.2387 28.9238 17.1033 29.1571 16.982C29.3998 16.8607 29.6518 16.8 29.9131 16.8C30.2584 16.8 30.5198 16.926 30.6971 17.178L31.9571 18.732C31.5091 19.2453 31.0238 19.6653 30.5011 19.992C29.9878 20.3093 29.4558 20.5613 28.9051 20.748C28.3638 20.9253 27.8178 21.0467 27.2671 21.112C26.7258 21.1867 26.2078 21.224 25.7131 21.224C24.6958 21.224 23.7391 21.0607 22.8431 20.734C21.9564 20.398 21.1771 19.9033 20.5051 19.25C19.8424 18.5967 19.3151 17.7847 18.9231 16.814C18.5404 15.8433 18.3491 14.714 18.3491 13.426C18.3491 12.4553 18.5124 11.536 18.8391 10.668C19.1751 9.8 19.6511 9.03933 20.2671 8.386C20.8924 7.73267 21.6438 7.21467 22.5211 6.832C23.4078 6.44933 24.4064 6.258 25.5171 6.258ZM25.6011 9.254C24.7704 9.254 24.1218 9.492 23.6551 9.968C23.1884 10.4347 22.8804 11.1113 22.7311 11.998H28.1491C28.1491 11.6527 28.1024 11.3167 28.0091 10.99C27.9251 10.6633 27.7804 10.374 27.5751 10.122C27.3791 9.86067 27.1178 9.65067 26.7911 9.492C26.4644 9.33333 26.0678 9.254 25.6011 9.254ZM44.5556 21C44.1449 21 43.8322 20.944 43.6176 20.832C43.4122 20.72 43.2396 20.4867 43.0996 20.132L42.7916 19.334C42.4276 19.642 42.0776 19.9127 41.7416 20.146C41.4056 20.3793 41.0556 20.58 40.6916 20.748C40.3369 20.9067 39.9542 21.0233 39.5436 21.098C39.1422 21.182 38.6942 21.224 38.1996 21.224C37.5369 21.224 36.9349 21.14 36.3936 20.972C35.8522 20.7947 35.3902 20.538 35.0076 20.202C34.6342 19.866 34.3449 19.4507 34.1396 18.956C33.9342 18.452 33.8316 17.8733 33.8316 17.22C33.8316 16.7067 33.9622 16.1793 34.2236 15.638C34.4849 15.0967 34.9376 14.6067 35.5816 14.168C36.2256 13.72 37.0936 13.3467 38.1856 13.048C39.2776 12.7493 40.6542 12.5813 42.3156 12.544V11.928C42.3156 11.0787 42.1382 10.4673 41.7836 10.094C41.4382 9.71133 40.9436 9.52 40.2996 9.52C39.7862 9.52 39.3662 9.576 39.0396 9.688C38.7129 9.8 38.4189 9.926 38.1576 10.066C37.9056 10.206 37.6582 10.332 37.4156 10.444C37.1729 10.556 36.8836 10.612 36.5476 10.612C36.2489 10.612 35.9922 10.542 35.7776 10.402C35.5722 10.2527 35.4089 10.0707 35.2876 9.856L34.5036 8.498C35.3809 7.72333 36.3516 7.14933 37.4156 6.776C38.4889 6.39333 39.6369 6.202 40.8596 6.202C41.7369 6.202 42.5256 6.34667 43.2256 6.636C43.9349 6.916 44.5322 7.31267 45.0176 7.826C45.5122 8.33 45.8902 8.932 46.1516 9.632C46.4129 10.332 46.5436 11.0973 46.5436 11.928V21H44.5556ZM39.5716 18.354C40.1316 18.354 40.6216 18.256 41.0416 18.06C41.4616 17.864 41.8862 17.5467 42.3156 17.108V15.092C41.4476 15.1293 40.7336 15.204 40.1736 15.316C39.6136 15.428 39.1702 15.568 38.8436 15.736C38.5169 15.904 38.2882 16.0953 38.1576 16.31C38.0362 16.5247 37.9756 16.758 37.9756 17.01C37.9756 17.5047 38.1109 17.8547 38.3816 18.06C38.6522 18.256 39.0489 18.354 39.5716 18.354ZM54.1053 0.0419986V21H49.7653V0.0419986H54.1053Z" fill="black"/>
<path d="M76.1558 0.602V4.242H67.7838V9.002H74.1958V12.502H67.7838V17.36H76.1558V21H63.0238V0.602H76.1558ZM87.7318 9.66C87.6198 9.83733 87.4984 9.96333 87.3678 10.038C87.2464 10.1127 87.0878 10.15 86.8918 10.15C86.6864 10.15 86.4811 10.108 86.2758 10.024C86.0704 9.93067 85.8464 9.83267 85.6038 9.73C85.3704 9.62733 85.1044 9.534 84.8058 9.45C84.5071 9.35667 84.1664 9.31 83.7838 9.31C83.2331 9.31 82.8084 9.41733 82.5098 9.632C82.2204 9.83733 82.0758 10.1267 82.0758 10.5C82.0758 10.7707 82.1691 10.9947 82.3558 11.172C82.5518 11.3493 82.8084 11.508 83.1258 11.648C83.4431 11.7787 83.8024 11.9047 84.2038 12.026C84.6051 12.1473 85.0158 12.2827 85.4358 12.432C85.8558 12.5813 86.2664 12.7587 86.6678 12.964C87.0691 13.16 87.4284 13.4073 87.7458 13.706C88.0631 13.9953 88.3151 14.35 88.5018 14.77C88.6978 15.19 88.7958 15.694 88.7958 16.282C88.7958 17.0007 88.6651 17.6633 88.4038 18.27C88.1424 18.8767 87.7504 19.3993 87.2278 19.838C86.7144 20.2767 86.0751 20.6173 85.3098 20.86C84.5538 21.1027 83.6811 21.224 82.6918 21.224C82.1971 21.224 81.7024 21.1773 81.2078 21.084C80.7131 20.9907 80.2324 20.8647 79.7658 20.706C79.3084 20.5473 78.8838 20.3607 78.4918 20.146C78.0998 19.922 77.7638 19.684 77.4838 19.432L78.4918 17.836C78.6131 17.6493 78.7578 17.5047 78.9258 17.402C79.0938 17.29 79.3131 17.234 79.5838 17.234C79.8358 17.234 80.0598 17.29 80.2558 17.402C80.4611 17.514 80.6804 17.6353 80.9138 17.766C81.1471 17.8967 81.4178 18.018 81.7258 18.13C82.0431 18.242 82.4398 18.298 82.9158 18.298C83.2518 18.298 83.5364 18.2653 83.7698 18.2C84.0031 18.1253 84.1898 18.0273 84.3298 17.906C84.4698 17.7847 84.5724 17.6493 84.6378 17.5C84.7031 17.3507 84.7358 17.1967 84.7358 17.038C84.7358 16.7487 84.6378 16.5107 84.4418 16.324C84.2458 16.1373 83.9891 15.9787 83.6718 15.848C83.3544 15.708 82.9904 15.582 82.5798 15.47C82.1784 15.3487 81.7678 15.2133 81.3478 15.064C80.9278 14.9147 80.5124 14.7373 80.1018 14.532C79.7004 14.3173 79.3411 14.0513 79.0238 13.734C78.7064 13.4073 78.4498 13.0107 78.2538 12.544C78.0578 12.0773 77.9598 11.5127 77.9598 10.85C77.9598 10.234 78.0764 9.65067 78.3098 9.1C78.5524 8.54 78.9118 8.05 79.3878 7.63C79.8638 7.21 80.4611 6.87867 81.1798 6.636C81.8984 6.384 82.7384 6.258 83.6998 6.258C84.2224 6.258 84.7264 6.30467 85.2118 6.398C85.7064 6.49133 86.1684 6.622 86.5978 6.79C87.0271 6.958 87.4191 7.15867 87.7738 7.392C88.1284 7.616 88.4411 7.86333 88.7118 8.134L87.7318 9.66ZM96.2838 21.224C95.5931 21.224 94.9818 21.126 94.4498 20.93C93.9271 20.7247 93.4838 20.44 93.1198 20.076C92.7651 19.7027 92.4945 19.2547 92.3078 18.732C92.1211 18.2093 92.0278 17.626 92.0278 16.982V9.478H90.7958C90.5718 9.478 90.3805 9.408 90.2218 9.268C90.0631 9.11867 89.9838 8.904 89.9838 8.624V6.93L92.2938 6.482L93.1478 2.94C93.2598 2.492 93.5771 2.268 94.0998 2.268H96.3678V6.51H99.8958V9.478H96.3678V16.688C96.3678 17.024 96.4471 17.304 96.6058 17.528C96.7738 17.7427 97.0118 17.85 97.3198 17.85C97.4785 17.85 97.6091 17.836 97.7118 17.808C97.8238 17.7707 97.9171 17.7333 97.9918 17.696C98.0758 17.6493 98.1505 17.612 98.2158 17.584C98.2905 17.5467 98.3745 17.528 98.4678 17.528C98.5985 17.528 98.7011 17.5607 98.7758 17.626C98.8598 17.682 98.9438 17.7753 99.0278 17.906L100.344 19.964C99.7838 20.384 99.1538 20.7013 98.4538 20.916C97.7538 21.1213 97.0305 21.224 96.2838 21.224ZM112.423 21C112.012 21 111.699 20.944 111.485 20.832C111.279 20.72 111.107 20.4867 110.967 20.132L110.659 19.334C110.295 19.642 109.945 19.9127 109.609 20.146C109.273 20.3793 108.923 20.58 108.559 20.748C108.204 20.9067 107.821 21.0233 107.411 21.098C107.009 21.182 106.561 21.224 106.067 21.224C105.404 21.224 104.802 21.14 104.261 20.972C103.719 20.7947 103.257 20.538 102.875 20.202C102.501 19.866 102.212 19.4507 102.007 18.956C101.801 18.452 101.699 17.8733 101.699 17.22C101.699 16.7067 101.829 16.1793 102.091 15.638C102.352 15.0967 102.805 14.6067 103.449 14.168C104.093 13.72 104.961 13.3467 106.053 13.048C107.145 12.7493 108.521 12.5813 110.183 12.544V11.928C110.183 11.0787 110.005 10.4673 109.651 10.094C109.305 9.71133 108.811 9.52 108.167 9.52C107.653 9.52 107.233 9.576 106.907 9.688C106.58 9.8 106.286 9.926 106.025 10.066C105.773 10.206 105.525 10.332 105.283 10.444C105.04 10.556 104.751 10.612 104.415 10.612C104.116 10.612 103.859 10.542 103.645 10.402C103.439 10.2527 103.276 10.0707 103.155 9.856L102.371 8.498C103.248 7.72333 104.219 7.14933 105.283 6.776C106.356 6.39333 107.504 6.202 108.727 6.202C109.604 6.202 110.393 6.34667 111.093 6.636C111.802 6.916 112.399 7.31267 112.885 7.826C113.379 8.33 113.757 8.932 114.019 9.632C114.28 10.332 114.411 11.0973 114.411 11.928V21H112.423ZM107.439 18.354C107.999 18.354 108.489 18.256 108.909 18.06C109.329 17.864 109.753 17.5467 110.183 17.108V15.092C109.315 15.1293 108.601 15.204 108.041 15.316C107.481 15.428 107.037 15.568 106.711 15.736C106.384 15.904 106.155 16.0953 106.025 16.31C105.903 16.5247 105.843 16.758 105.843 17.01C105.843 17.5047 105.978 17.8547 106.249 18.06C106.519 18.256 106.916 18.354 107.439 18.354ZM122.589 21.224C121.898 21.224 121.287 21.126 120.755 20.93C120.232 20.7247 119.789 20.44 119.425 20.076C119.07 19.7027 118.799 19.2547 118.613 18.732C118.426 18.2093 118.333 17.626 118.333 16.982V9.478H117.101C116.877 9.478 116.685 9.408 116.527 9.268C116.368 9.11867 116.289 8.904 116.289 8.624V6.93L118.599 6.482L119.453 2.94C119.565 2.492 119.882 2.268 120.405 2.268H122.673V6.51H126.201V9.478H122.673V16.688C122.673 17.024 122.752 17.304 122.911 17.528C123.079 17.7427 123.317 17.85 123.625 17.85C123.783 17.85 123.914 17.836 124.017 17.808C124.129 17.7707 124.222 17.7333 124.297 17.696C124.381 17.6493 124.455 17.612 124.521 17.584C124.595 17.5467 124.679 17.528 124.773 17.528C124.903 17.528 125.006 17.5607 125.081 17.626C125.165 17.682 125.249 17.7753 125.333 17.906L126.649 19.964C126.089 20.384 125.459 20.7013 124.759 20.916C124.059 21.1213 123.335 21.224 122.589 21.224ZM134.919 6.258C135.881 6.258 136.758 6.40733 137.551 6.706C138.354 7.00467 139.04 7.43867 139.609 8.008C140.188 8.57733 140.636 9.27733 140.953 10.108C141.28 10.9293 141.443 11.8627 141.443 12.908C141.443 13.2347 141.429 13.5007 141.401 13.706C141.373 13.9113 141.322 14.0747 141.247 14.196C141.173 14.3173 141.07 14.4013 140.939 14.448C140.818 14.4947 140.659 14.518 140.463 14.518H132.091C132.231 15.7313 132.6 16.6133 133.197 17.164C133.795 17.7053 134.565 17.976 135.507 17.976C136.011 17.976 136.445 17.9153 136.809 17.794C137.173 17.6727 137.495 17.5373 137.775 17.388C138.065 17.2387 138.326 17.1033 138.559 16.982C138.802 16.8607 139.054 16.8 139.315 16.8C139.661 16.8 139.922 16.926 140.099 17.178L141.359 18.732C140.911 19.2453 140.426 19.6653 139.903 19.992C139.39 20.3093 138.858 20.5613 138.307 20.748C137.766 20.9253 137.22 21.0467 136.669 21.112C136.128 21.1867 135.61 21.224 135.115 21.224C134.098 21.224 133.141 21.0607 132.245 20.734C131.359 20.398 130.579 19.9033 129.907 19.25C129.245 18.5967 128.717 17.7847 128.325 16.814C127.943 15.8433 127.751 14.714 127.751 13.426C127.751 12.4553 127.915 11.536 128.241 10.668C128.577 9.8 129.053 9.03933 129.669 8.386C130.295 7.73267 131.046 7.21467 131.923 6.832C132.81 6.44933 133.809 6.258 134.919 6.258ZM135.003 9.254C134.173 9.254 133.524 9.492 133.057 9.968C132.591 10.4347 132.283 11.1113 132.133 11.998H137.551C137.551 11.6527 137.505 11.3167 137.411 10.99C137.327 10.6633 137.183 10.374 136.977 10.122C136.781 9.86067 136.52 9.65067 136.193 9.492C135.867 9.33333 135.47 9.254 135.003 9.254Z" fill="#FF5A3C"/>
</svg>
