<svg width="23" height="21" viewBox="0 0 23 21" fill="none" xmlns="http://www.w3.org/2000/svg">
<path d="M21.7855 8.34109L17.1705 12.8376L18.2594 19.1934C18.3039 19.4749 18.1927 19.749 17.9631 19.9194C17.8372 20.0157 17.6816 20.0601 17.526 20.0601C17.4075 20.0601 17.289 20.0305 17.1779 19.9786L11.4739 16.9785L5.77 19.9786C5.51813 20.112 5.22183 20.0897 4.99219 19.9194C4.76255 19.7564 4.65143 19.4749 4.69588 19.1934L5.78481 12.8376L1.17721 8.34109C0.977203 8.14108 0.903126 7.85218 0.992018 7.5855C1.08091 7.31883 1.31055 7.11882 1.59204 7.08178L7.97009 6.15581L10.8221 0.377794C11.0739 -0.125931 11.9036 -0.125931 12.148 0.377794L15 6.15581L21.3781 7.08178C21.6596 7.12622 21.8892 7.31883 21.9781 7.5855C22.067 7.85218 21.9929 8.14108 21.7855 8.34109Z" fill="#FF5A3C"/>
</svg>
