<svg width="99" height="100" viewBox="0 0 99 100" fill="none" xmlns="http://www.w3.org/2000/svg">
<g filter="url(#filter0_d_150_6241)">
<path d="M49.5 57.7803C60.2696 57.7803 69 49.0498 69 38.2803C69 27.5107 60.2696 18.7803 49.5 18.7803C38.7304 18.7803 30 27.5107 30 38.2803C30 49.0498 38.7304 57.7803 49.5 57.7803Z" fill="#1A242E"/>
<path d="M49.5 57.7803C60.2696 57.7803 69 49.0498 69 38.2803C69 27.5107 60.2696 18.7803 49.5 18.7803C38.7304 18.7803 30 27.5107 30 38.2803C30 49.0498 38.7304 57.7803 49.5 57.7803Z" stroke="white"/>
</g>
<path d="M55.1829 34.6521C54.765 34.8626 54.3472 34.9328 53.8597 35.0029C54.3472 34.7223 54.6954 34.3013 54.8347 33.7399C54.4168 34.0206 53.9293 34.1609 53.3722 34.3013C52.9543 33.8803 52.3275 33.5996 51.7007 33.5996C50.5168 33.5996 49.4722 34.6521 49.4722 35.9151C49.4722 36.1256 49.4722 36.2659 49.5418 36.4062C47.6614 36.3361 45.9204 35.4239 44.8061 34.0206C44.5972 34.3714 44.5275 34.7223 44.5275 35.2134C44.5275 35.9853 44.9454 36.6869 45.5722 37.1079C45.2239 37.1079 44.8757 36.9676 44.5275 36.8272C44.5275 37.9499 45.2936 38.8621 46.3382 39.0726C46.1293 39.1427 45.9204 39.1427 45.7114 39.1427C45.5722 39.1427 45.4329 39.1427 45.2936 39.0726C45.5722 39.9847 46.4079 40.6864 47.4525 40.6864C46.6864 41.3179 45.7114 41.6687 44.5972 41.6687C44.3882 41.6687 44.2489 41.6687 44.04 41.6687C45.0847 42.3002 46.2686 42.7212 47.5222 42.7212C51.7007 42.7212 53.9989 39.2129 53.9989 36.1957C53.9989 36.1256 53.9989 35.9853 53.9989 35.9151C54.4864 35.5643 54.9043 35.1433 55.1829 34.6521Z" fill="white"/>
<defs>
<filter id="filter0_d_150_6241" x="0" y="0.780273" width="99" height="99" filterUnits="userSpaceOnUse" color-interpolation-filters="sRGB">
<feFlood flood-opacity="0" result="BackgroundImageFix"/>
<feColorMatrix in="SourceAlpha" type="matrix" values="0 0 0 0 0 0 0 0 0 0 0 0 0 0 0 0 0 0 127 0" result="hardAlpha"/>
<feOffset dy="12"/>
<feGaussianBlur stdDeviation="15"/>
<feColorMatrix type="matrix" values="0 0 0 0 0 0 0 0 0 0 0 0 0 0 0 0 0 0 0.08 0"/>
<feBlend mode="normal" in2="BackgroundImageFix" result="effect1_dropShadow_150_6241"/>
<feBlend mode="normal" in="SourceGraphic" in2="effect1_dropShadow_150_6241" result="shape"/>
</filter>
</defs>
</svg>
